<mxfile host="Electron" modified="2024-03-13T01:14:57.247Z" agent="Mozilla/5.0 (Windows NT 10.0; Win64; x64) AppleWebKit/537.36 (KHTML, like Gecko) draw.io/23.1.5 Chrome/120.0.6099.109 Electron/28.1.0 Safari/537.36" etag="eLQpz9Tjk6hT-QnlyLE3" version="23.1.5" type="device">
  <diagram name="Seite-1" id="ulaDtcHs0nGE5K3a8IIi">
    <mxGraphModel dx="971" dy="1136" grid="1" gridSize="10" guides="1" tooltips="1" connect="1" arrows="1" fold="1" page="1" pageScale="1" pageWidth="827" pageHeight="1169" math="0" shadow="0">
      <root>
        <mxCell id="0" />
        <mxCell id="1" parent="0" />
        <mxCell id="5-avvSn0oEUarH7fLwz4-31" style="edgeStyle=orthogonalEdgeStyle;rounded=0;orthogonalLoop=1;jettySize=auto;html=1;entryX=0;entryY=0.5;entryDx=0;entryDy=0;" parent="1" source="5-avvSn0oEUarH7fLwz4-1" target="5-avvSn0oEUarH7fLwz4-7" edge="1">
          <mxGeometry relative="1" as="geometry" />
        </mxCell>
        <mxCell id="5-avvSn0oEUarH7fLwz4-2" value="" style="ellipse;html=1;shape=endState;fillColor=#000000;strokeColor=#ff0000;" parent="1" vertex="1">
          <mxGeometry x="950" y="280" width="30" height="30" as="geometry" />
        </mxCell>
        <mxCell id="5-avvSn0oEUarH7fLwz4-32" style="edgeStyle=orthogonalEdgeStyle;rounded=0;orthogonalLoop=1;jettySize=auto;html=1;" parent="1" source="5-avvSn0oEUarH7fLwz4-3" target="5-avvSn0oEUarH7fLwz4-1" edge="1">
          <mxGeometry relative="1" as="geometry" />
        </mxCell>
        <mxCell id="5-avvSn0oEUarH7fLwz4-3" value="" style="ellipse;html=1;shape=startState;fillColor=#000000;strokeColor=#ff0000;" parent="1" vertex="1">
          <mxGeometry x="100" y="100" width="30" height="30" as="geometry" />
        </mxCell>
        <mxCell id="5-avvSn0oEUarH7fLwz4-13" value="" style="edgeStyle=orthogonalEdgeStyle;rounded=0;orthogonalLoop=1;jettySize=auto;html=1;" parent="1" source="5-avvSn0oEUarH7fLwz4-7" target="5-avvSn0oEUarH7fLwz4-11" edge="1">
          <mxGeometry relative="1" as="geometry" />
        </mxCell>
        <mxCell id="bAzlSE7LTAT2aRMzA5fn-3" style="edgeStyle=orthogonalEdgeStyle;rounded=0;orthogonalLoop=1;jettySize=auto;html=1;entryX=0;entryY=0.5;entryDx=0;entryDy=0;" edge="1" parent="1" source="5-avvSn0oEUarH7fLwz4-7" target="5-avvSn0oEUarH7fLwz4-36">
          <mxGeometry relative="1" as="geometry">
            <Array as="points">
              <mxPoint x="354" y="280" />
            </Array>
          </mxGeometry>
        </mxCell>
        <mxCell id="5-avvSn0oEUarH7fLwz4-7" value="Prepare" style="rounded=1;whiteSpace=wrap;html=1;" parent="1" vertex="1">
          <mxGeometry x="294" y="85" width="120" height="60" as="geometry" />
        </mxCell>
        <mxCell id="5-avvSn0oEUarH7fLwz4-14" value="" style="edgeStyle=orthogonalEdgeStyle;rounded=0;orthogonalLoop=1;jettySize=auto;html=1;entryX=0;entryY=0.5;entryDx=0;entryDy=0;" parent="1" source="5-avvSn0oEUarH7fLwz4-11" target="bAzlSE7LTAT2aRMzA5fn-1" edge="1">
          <mxGeometry relative="1" as="geometry">
            <mxPoint x="730" y="290" as="targetPoint" />
          </mxGeometry>
        </mxCell>
        <mxCell id="5-avvSn0oEUarH7fLwz4-37" style="edgeStyle=orthogonalEdgeStyle;rounded=0;orthogonalLoop=1;jettySize=auto;html=1;entryX=0;entryY=0.5;entryDx=0;entryDy=0;" parent="1" source="5-avvSn0oEUarH7fLwz4-11" target="5-avvSn0oEUarH7fLwz4-36" edge="1">
          <mxGeometry relative="1" as="geometry" />
        </mxCell>
        <mxCell id="5-avvSn0oEUarH7fLwz4-11" value="Run" style="rounded=1;whiteSpace=wrap;html=1;" parent="1" vertex="1">
          <mxGeometry x="450" y="85" width="110" height="60" as="geometry" />
        </mxCell>
        <mxCell id="5-avvSn0oEUarH7fLwz4-30" style="edgeStyle=orthogonalEdgeStyle;rounded=0;orthogonalLoop=1;jettySize=auto;html=1;entryX=0.5;entryY=0;entryDx=0;entryDy=0;exitX=1;exitY=0.5;exitDx=0;exitDy=0;" parent="1" source="5-avvSn0oEUarH7fLwz4-27" target="5-avvSn0oEUarH7fLwz4-2" edge="1">
          <mxGeometry relative="1" as="geometry">
            <Array as="points">
              <mxPoint x="965" y="110" />
            </Array>
          </mxGeometry>
        </mxCell>
        <mxCell id="5-avvSn0oEUarH7fLwz4-27" value="Shutdown" style="rounded=1;whiteSpace=wrap;html=1;" parent="1" vertex="1">
          <mxGeometry x="930" y="80" width="100" height="60" as="geometry" />
        </mxCell>
        <mxCell id="5-avvSn0oEUarH7fLwz4-1" value="Initialize" style="rounded=1;whiteSpace=wrap;html=1;" parent="1" vertex="1">
          <mxGeometry x="150" y="85" width="120" height="60" as="geometry" />
        </mxCell>
        <mxCell id="5-avvSn0oEUarH7fLwz4-38" style="edgeStyle=orthogonalEdgeStyle;rounded=0;orthogonalLoop=1;jettySize=auto;html=1;entryX=0;entryY=0.5;entryDx=0;entryDy=0;" parent="1" source="5-avvSn0oEUarH7fLwz4-36" target="5-avvSn0oEUarH7fLwz4-27" edge="1">
          <mxGeometry relative="1" as="geometry">
            <Array as="points">
              <mxPoint x="900" y="290" />
              <mxPoint x="900" y="110" />
            </Array>
          </mxGeometry>
        </mxCell>
        <mxCell id="5-avvSn0oEUarH7fLwz4-36" value="Emergency (Insufficient Power)" style="rounded=1;whiteSpace=wrap;html=1;" parent="1" vertex="1">
          <mxGeometry x="600" y="250" width="120" height="60" as="geometry" />
        </mxCell>
        <mxCell id="bAzlSE7LTAT2aRMzA5fn-4" style="edgeStyle=orthogonalEdgeStyle;rounded=0;orthogonalLoop=1;jettySize=auto;html=1;entryX=0;entryY=0.5;entryDx=0;entryDy=0;" edge="1" parent="1" source="bAzlSE7LTAT2aRMzA5fn-1" target="5-avvSn0oEUarH7fLwz4-27">
          <mxGeometry relative="1" as="geometry" />
        </mxCell>
        <mxCell id="bAzlSE7LTAT2aRMzA5fn-7" value="" style="edgeStyle=orthogonalEdgeStyle;rounded=0;orthogonalLoop=1;jettySize=auto;html=1;" edge="1" parent="1" source="bAzlSE7LTAT2aRMzA5fn-1" target="bAzlSE7LTAT2aRMzA5fn-6">
          <mxGeometry relative="1" as="geometry" />
        </mxCell>
        <mxCell id="bAzlSE7LTAT2aRMzA5fn-1" value="(Active) Braking" style="rounded=1;whiteSpace=wrap;html=1;" vertex="1" parent="1">
          <mxGeometry x="620" y="85" width="100" height="60" as="geometry" />
        </mxCell>
        <mxCell id="bAzlSE7LTAT2aRMzA5fn-8" style="edgeStyle=orthogonalEdgeStyle;rounded=0;orthogonalLoop=1;jettySize=auto;html=1;entryX=0.5;entryY=0;entryDx=0;entryDy=0;" edge="1" parent="1" source="bAzlSE7LTAT2aRMzA5fn-6" target="5-avvSn0oEUarH7fLwz4-7">
          <mxGeometry relative="1" as="geometry">
            <Array as="points">
              <mxPoint x="825" y="65" />
              <mxPoint x="354" y="65" />
            </Array>
          </mxGeometry>
        </mxCell>
        <mxCell id="bAzlSE7LTAT2aRMzA5fn-6" value="Idle" style="whiteSpace=wrap;html=1;rounded=1;" vertex="1" parent="1">
          <mxGeometry x="790" y="85" width="70" height="60" as="geometry" />
        </mxCell>
      </root>
    </mxGraphModel>
  </diagram>
</mxfile>
